<svg width="36" height="36" viewBox="0 0 36 36" fill="none" xmlns="http://www.w3.org/2000/svg">
<path d="M24.9298 4.485C24.7556 4.31039 24.5487 4.17185 24.3209 4.07733C24.0931 3.98281 23.8489 3.93415 23.6023 3.93415C23.3556 3.93415 23.1114 3.98281 22.8836 4.07733C22.6558 4.17185 22.4489 4.31039 22.2748 4.485L9.80976 16.95C9.6707 17.0888 9.56038 17.2536 9.48511 17.4351C9.40984 17.6165 9.37109 17.811 9.37109 18.0075C9.37109 18.204 9.40984 18.3985 9.48511 18.5799C9.56038 18.7614 9.6707 18.9262 9.80976 19.065L22.2748 31.53C23.0098 32.265 24.1948 32.265 24.9298 31.53C25.6648 30.795 25.6648 29.61 24.9298 28.875L14.0698 18L24.9448 7.125C25.6648 6.405 25.6648 5.205 24.9298 4.485Z" fill="#EC704B"/>
</svg>
